<svg xmlns="http://www.w3.org/2000/svg" viewBox="0 0 19.8 19.59"><defs><style>.cls-1,.cls-4{fill:#1d0900;}.cls-1{stroke:#1d0900;stroke-width:0.75px;}.cls-1,.cls-3{stroke-linecap:round;stroke-linejoin:round;}.cls-2{fill:#daa144;}.cls-3{fill:none;stroke:#000;}</style></defs><g id="图层_2" data-name="图层 2"><polygon class="cls-1" points="7.71 0.38 0.38 19.21 3.85 19.21 9.4 4.17 14.96 19.21 18.53 19.21 11.26 0.38 7.71 0.38"/></g><g id="图层_3" data-name="图层 3"><path class="cls-2" d="M12.49,15.24c2.16-1.31,3.22-1.35,4.13-1.06a8,8,0,0,0,2.42.67,5.17,5.17,0,0,0,1.89-.19,4.08,4.08,0,0,0,2.61-2.27c.15-.43,0-.84.16-.93s.71.39.9.67c1,1.5-.81,4.89-2.91,7a8.53,8.53,0,0,1-3.51,2.37,8.36,8.36,0,0,1-6.29-.61,5.55,5.55,0,0,1-1.2-.77Z" transform="translate(-5.07 -4.61)"/></g><g id="图层_4" data-name="图层 4"><path class="cls-3" d="M11,17a4.16,4.16,0,0,1,3.12-.19c.85.33,1.07.85,2.52,1.53a3.18,3.18,0,0,0,1.91.5,2.85,2.85,0,0,0,1.86-1.46" transform="translate(-5.07 -4.61)"/><polygon class="cls-4" points="6.37 9.61 7.49 10.44 6.37 13.45 5.18 13.17 6.37 9.61"/></g></svg>