<svg xmlns="http://www.w3.org/2000/svg" viewBox="0 0 30 30"><defs><style>.cls-1{fill:#f2e4d7;}.cls-2,.cls-5{fill:#1d0900;}.cls-2{stroke:#1d0900;stroke-width:0.75px;}.cls-2,.cls-4{stroke-linecap:round;stroke-linejoin:round;}.cls-3{fill:#daa144;}.cls-4{fill:none;stroke:#000;}</style></defs><g id="图层_1" data-name="图层 1"><g id="图层_5" data-name="图层 5"><rect class="cls-1" width="30" height="30"/></g></g><g id="图层_2" data-name="图层 2"><polygon class="cls-2" points="12.79 4.99 5.45 23.82 8.93 23.82 14.48 8.78 20.03 23.82 23.61 23.82 16.33 4.99 12.79 4.99"/></g><g id="图层_3" data-name="图层 3"><path class="cls-3" d="M12.49,15.24c2.16-1.31,3.22-1.35,4.13-1.06a8,8,0,0,0,2.42.67,5.17,5.17,0,0,0,1.89-.19,4.08,4.08,0,0,0,2.61-2.27c.15-.43,0-.84.16-.93s.71.39.9.67c1,1.5-.81,4.89-2.91,7a8.53,8.53,0,0,1-3.51,2.37,8.36,8.36,0,0,1-6.29-.61,5.55,5.55,0,0,1-1.2-.77Z"/></g><g id="图层_4" data-name="图层 4"><path class="cls-4" d="M11,17a4.16,4.16,0,0,1,3.12-.19c.85.33,1.07.85,2.52,1.53a3.18,3.18,0,0,0,1.91.5,2.85,2.85,0,0,0,1.86-1.46"/><polygon class="cls-5" points="11.45 14.22 12.56 15.05 11.45 18.07 10.25 17.78 11.45 14.22"/></g></svg>