<?xml version="1.0" encoding="UTF-8"?>
<svg xmlns="http://www.w3.org/2000/svg" xmlns:xlink="http://www.w3.org/1999/xlink" width="30px" height="30px" viewBox="0 0 30 30" version="1.1">
<g id="surface1">
<path style="fill-rule:nonzero;fill:rgb(100%,93.72549%,78.039216%);fill-opacity:1;stroke-width:4;stroke-linecap:butt;stroke-linejoin:miter;stroke:rgb(92.941176%,72.941176%,58.039216%);stroke-opacity:1;stroke-miterlimit:10;" d="M 40.401402 2.002773 L 99.428598 2.002773 C 120.639789 2.002773 137.827227 19.190211 137.827227 40.401402 L 137.827227 99.428598 C 137.827227 120.639789 120.639789 137.827227 99.428598 137.827227 L 40.401402 137.827227 C 19.190211 137.827227 2.002773 120.639789 2.002773 99.428598 L 2.002773 40.401402 C 2.002773 19.190211 19.190211 2.002773 40.401402 2.002773 Z M 40.401402 2.002773 " transform="matrix(0.214546,0,0,0.214546,0,0)"/>
<path style=" stroke:none;fill-rule:nonzero;fill:rgb(100%,50.196078%,50.196078%);fill-opacity:1;" d="M 6.746094 15.710938 C 6.898438 13.65625 5.410156 13.238281 4.9375 10.851562 C 4.371094 8.003906 5.617188 4.164062 7.984375 3.34375 C 10.472656 2.484375 13.472656 5.179688 13.976562 5.65625 C 16.125 7.660156 15.988281 9.472656 17.5 9.769531 C 19.175781 10.101562 19.914062 7.972656 22.433594 7.964844 C 22.601562 7.964844 24.617188 7.988281 25.898438 9.464844 C 27.179688 10.945312 27.214844 13.230469 26.527344 14.828125 C 25.53125 17.140625 23.226562 17.550781 23.222656 19.527344 C 23.222656 20.261719 23.539062 20.277344 23.585938 21.074219 C 23.695312 23.035156 21.921875 25.546875 19.859375 25.914062 C 17.371094 26.355469 16.222656 23.351562 13.6875 23.90625 C 12.125 24.246094 12.078125 25.484375 10.21875 25.835938 C 10.046875 25.867188 7.816406 26.246094 6.195312 24.761719 C 4.578125 23.277344 4.757812 20.886719 4.816406 20.367188 C 5.085938 18.023438 6.597656 17.75 6.746094 15.710938 Z M 6.746094 15.710938 "/>
<path style=" stroke:none;fill-rule:nonzero;fill:rgb(62.352941%,88.627451%,83.529412%);fill-opacity:1;" d="M 10.765625 18.230469 C 10.335938 17.75 11.507812 16.753906 11.710938 14.972656 C 11.988281 12.53125 10.148438 11.167969 10.851562 10.253906 C 11.339844 9.621094 12.726562 9.625 13.324219 10.1875 C 13.675781 10.519531 13.597656 10.886719 13.855469 11.746094 C 13.996094 12.207031 14.296875 13.21875 14.929688 13.878906 C 16.34375 15.378906 19.648438 15.316406 20.394531 15.066406 C 20.539062 15.007812 20.699219 15.007812 20.84375 15.066406 C 21.089844 15.210938 21.140625 15.632812 21.097656 15.90625 C 21 16.546875 20.320312 16.921875 20.066406 17.0625 C 19.089844 17.589844 18.472656 17.304688 16.808594 17.398438 C 15.519531 17.46875 14.273438 17.730469 12.863281 18.023438 C 11.457031 18.3125 11 18.492188 10.765625 18.230469 Z M 10.765625 18.230469 "/>
</g>
</svg>
