<?xml version="1.0" encoding="UTF-8"?>
<svg xmlns="http://www.w3.org/2000/svg" xmlns:xlink="http://www.w3.org/1999/xlink" width="29px" height="30px" viewBox="0 0 29 29" version="1.1">
<g id="surface1">
<path style=" stroke:none;fill-rule:nonzero;fill:rgb(100%,50.196078%,50.196078%);fill-opacity:1;" d="M 2.574219 15.953125 C 2.773438 13.335938 0.828125 12.800781 0.210938 9.761719 C -0.523438 6.140625 1.101562 1.246094 4.191406 0.210938 C 7.445312 -0.875 11.359375 2.554688 12.019531 3.15625 C 14.816406 5.710938 14.644531 8.023438 16.617188 8.398438 C 18.808594 8.816406 19.773438 6.105469 23.066406 6.097656 C 23.289062 6.097656 25.914062 6.128906 27.589844 8 C 29.265625 9.871094 29.308594 12.792969 28.410156 14.828125 C 27.113281 17.769531 24.101562 18.292969 24.101562 20.808594 C 24.101562 21.746094 24.515625 21.765625 24.574219 22.78125 C 24.71875 25.277344 22.402344 28.476562 19.710938 28.941406 C 16.457031 29.503906 14.960938 25.679688 11.648438 26.382812 C 9.609375 26.816406 9.542969 28.394531 7.121094 28.839844 C 6.898438 28.878906 3.980469 29.363281 1.867188 27.472656 C -0.265625 25.566406 -0.0117188 22.539062 0.0664062 21.875 C 0.40625 18.894531 2.382812 18.550781 2.574219 15.953125 Z M 2.574219 15.953125 "/>
<path style=" stroke:none;fill-rule:nonzero;fill:rgb(62.352941%,88.627451%,83.529412%);fill-opacity:1;" d="M 7.824219 19.160156 C 7.261719 18.546875 8.796875 17.28125 9.066406 15.011719 C 9.425781 11.90625 7.023438 10.167969 7.949219 9.007812 C 8.589844 8.203125 10.398438 8.207031 11.179688 8.925781 C 11.636719 9.34375 11.539062 9.8125 11.875 10.90625 C 12.054688 11.496094 12.453125 12.78125 13.261719 13.621094 C 15.113281 15.539062 19.425781 15.449219 20.402344 15.136719 C 20.484375 15.109375 20.765625 15.015625 20.988281 15.136719 C 21.3125 15.316406 21.375 15.851562 21.320312 16.199219 C 21.199219 17.015625 20.308594 17.496094 19.972656 17.671875 C 18.699219 18.34375 17.894531 17.980469 15.71875 18.101562 C 14.035156 18.195312 12.40625 18.523438 10.570312 18.898438 C 8.730469 19.269531 8.132812 19.492188 7.824219 19.160156 Z M 7.824219 19.160156 "/>
</g>
</svg>
