<svg xmlns="http://www.w3.org/2000/svg" viewBox="0 0 133.67 137.1"><defs><style>.cls-1{fill:#ff8080;stroke:#000;stroke-miterlimit:10;stroke-width:3px;}.cls-2{fill:#9fe2d5;}</style></defs><g id="图层_2" data-name="图层 2"><path class="cls-1" d="M356.72,264.8c.88-12.11-7.88-14.58-10.66-28.62-3.32-16.77,4-39.39,17.94-44.17,14.66-5,32.31,10.83,35.3,13.62,12.61,11.8,11.83,22.49,20.72,24.24,9.87,1.93,14.23-10.59,29.07-10.64,1,0,12.87.13,20.4,8.78s7.75,22.17,3.7,31.58c-5.85,13.61-19.42,16-19.46,27.66,0,4.33,1.88,4.42,2.14,9.12.65,11.54-9.8,26.34-21.94,28.49-14.65,2.6-21.4-15.09-36.34-11.83-9.18,2-9.48,9.31-20.41,11.36-1,.19-14.16,2.42-23.69-6.32s-8.47-22.82-8.12-25.88C346.93,278.4,355.84,276.8,356.72,264.8Z" transform="translate(-343.64 -189.53)"/></g><g id="图层_3" data-name="图层 3"><path class="cls-2" d="M380.38,279.62c-2.53-2.82,4.38-8.69,5.56-19.17,1.63-14.38-9.2-22.41-5-27.78,2.88-3.72,11-3.7,14.55-.38,2.07,2,1.62,4.12,3.14,9.17.82,2.72,2.6,8.66,6.26,12.55,8.34,8.87,27.78,8.47,32.19,7a3.35,3.35,0,0,1,2.64,0c1.46.82,1.74,3.31,1.5,4.92-.58,3.77-4.57,6-6.07,6.81-5.76,3.1-9.38,1.43-19.19,2-7.58.42-14.93,1.95-23.22,3.68S381.77,281.16,380.38,279.62Z" transform="translate(-343.64 -189.53)"/></g></svg>